<?xml version="1.0" encoding="UTF-8" standalone="no"?><!-- Generator: Gravit.io --><svg xmlns="http://www.w3.org/2000/svg" xmlns:xlink="http://www.w3.org/1999/xlink" style="isolation:isolate" viewBox="0 0 560 315" width="560pt" height="315pt"><defs><clipPath id="_clipPath_GpbVPnUZt0mnvtfm8EZYJJN8NNuGmo4e"><rect width="560" height="315"/></clipPath></defs><g clip-path="url(#_clipPath_GpbVPnUZt0mnvtfm8EZYJJN8NNuGmo4e)"><path d=" M 174.52 117.769 L 174.52 117.769 C 174.025 117.208 173.686 116.515 173.551 115.745 C 172.87 111.861 171.696 107.897 169.992 104.051 C 167.788 99.599 164.798 95.384 161.004 91.768 C 153.558 84.695 143.131 79.721 128.494 79.427 L 127.525 79.415 C 114.454 79.439 102.833 84.238 94.271 93.453 C 85.726 102.677 80.183 116.508 80.174 134.897 C 80.188 146.574 83.571 156.536 89.368 165.769 C 95.166 174.992 103.443 183.427 113.113 191.584 C 124.52 201.231 137.834 210.439 151.045 220.266 C 160.215 227.087 169.336 234.207 177.735 241.978 C 178.042 242.264 178.258 242.488 178.483 242.717 C 178.699 242.492 178.941 242.255 179.24 241.978 C 194.617 227.744 212.408 215.722 228.494 203.684 C 244.594 191.654 258.923 179.604 267.608 165.769 C 273.405 156.536 276.789 146.574 276.802 134.897 C 276.793 116.508 271.251 102.677 262.706 93.453 C 254.143 84.238 242.522 79.439 229.451 79.415 L 228.482 79.427 C 213.845 79.721 203.418 84.695 195.972 91.768 C 188.548 98.846 184.199 108.215 182.637 117.127 C 182.295 119.074 180.548 120.493 178.488 120.493 C 176.664 120.493 175.085 119.38 174.52 117.769 Z  M 236.798 50.736 C 236.329 50.736 235.87 50.741 235.401 50.751 C 206.837 51.3 188.363 65.382 178 82.459 C 167.637 65.382 149.162 51.3 120.599 50.751 C 120.135 50.741 119.666 50.736 119.201 50.736 C 99.918 50.736 82.422 58.469 69.942 72.505 C 56.898 87.181 50 107.763 50 132.023 C 50 179.659 88.202 208.712 125.142 236.806 C 139.398 247.647 154.13 258.854 166.883 271.149 L 167.452 271.923 C 169.983 275.043 173.662 276.875 177.601 276.99 L 178.001 277 L 178.419 276.99 C 182.343 276.87 186.012 275.043 188.543 271.933 L 189.122 271.144 C 201.871 258.849 216.607 247.643 230.859 236.805 C 267.798 208.712 306 179.66 306 132.023 C 306 84.161 277.542 50.736 236.798 50.736 L 236.798 50.736 L 236.798 50.736 Z " fill-rule="evenodd" fill="rgb(255,255,255)"/></g></svg>