<svg xmlns="http://www.w3.org/2000/svg" width="27" height="44" viewBox="0 0 27 44">
  <path id="前面オブジェクトで型抜き_1" data-name="前面オブジェクトで型抜き 1" d="M13.5,44a9.161,9.161,0,0,1-5.255-1.729,15.418,15.418,0,0,1-4.291-4.715A30.136,30.136,0,0,1,0,22,30.138,30.138,0,0,1,3.954,6.444,15.419,15.419,0,0,1,8.245,1.729,9.161,9.161,0,0,1,13.5,0,8.94,8.94,0,0,1,18,1.251c-.9,1.31-.512,3.85.952,6.179,1.348,2.144,3.294,3.584,4.841,3.584a1.968,1.968,0,0,0,1.055-.284,1.81,1.81,0,0,0,.2-.141A33.011,33.011,0,0,1,27,22a30.136,30.136,0,0,1-3.954,15.556,15.418,15.418,0,0,1-4.291,4.715A9.161,9.161,0,0,1,13.5,44Z" fill="#fff"/>
</svg>
