<?xml version="1.0" encoding="UTF-8" standalone="no"?><!-- Generator: Gravit.io --><svg xmlns="http://www.w3.org/2000/svg" xmlns:xlink="http://www.w3.org/1999/xlink" style="isolation:isolate" viewBox="0 0 560 315" width="560pt" height="315pt"><defs><clipPath id="_clipPath_9R8GvOMvwnUkpe2lUYjNrcdMaGNNtJxE"><rect width="560" height="315"/></clipPath></defs><g clip-path="url(#_clipPath_9R8GvOMvwnUkpe2lUYjNrcdMaGNNtJxE)"><g><path d=" M 358.665 51.196 C 336.246 30.866 304.191 18.99 264.998 19 C 227.799 19 196.046 30.246 173.33 50.309 C 161.984 60.325 152.951 72.549 146.8 86.452 C 140.645 100.349 137.391 115.89 137.396 132.389 C 137.387 152.336 141.284 170.76 149.151 186.836 C 156.651 202.2 167.8 215.266 182.001 225.484 C 178.643 240.637 173.927 262.292 173.927 262.303 C 173.711 263.276 173.598 264.289 173.603 265.317 C 173.593 269.386 175.366 273.302 178.437 275.827 L 178.456 275.842 L 178.46 275.848 C 180.661 277.642 183.313 278.56 185.96 278.56 C 187.954 278.56 189.976 278.041 191.8 276.987 L 191.984 276.887 L 192.162 276.771 C 192.167 276.765 194.697 275.157 198.59 272.687 C 204.426 268.987 213.308 263.357 221.236 258.352 C 225.195 255.851 228.919 253.507 231.896 251.647 C 234.854 249.793 237.134 248.375 237.976 247.877 L 238.018 247.852 L 238.075 247.816 C 249.125 241.102 257.927 239.973 264.999 239.933 C 294.345 239.887 325.605 233.788 350.564 217.088 C 363.011 208.725 373.845 197.57 381.467 183.289 C 389.103 169.018 393.41 151.743 393.396 131.745 C 393.457 100.294 381.104 71.475 358.665 51.196 Z  M 364.75 173.029 C 360.344 181.27 354.565 188.207 347.634 194.085 C 337.247 202.891 324.203 209.247 309.895 213.346 C 295.596 217.454 280.074 219.289 264.999 219.284 C 255.74 219.243 242.809 221.114 228.618 229.834 L 228.618 229.829 C 227.048 230.767 223.554 232.95 218.946 235.843 C 212.335 240.002 203.636 245.501 196.371 250.108 C 198.143 242.018 200.198 232.647 201.736 225.766 L 201.736 225.756 C 201.99 224.607 202.173 223.361 202.178 221.945 C 202.196 219.949 201.717 217.514 200.64 215.488 C 199.845 213.97 198.821 212.776 197.922 211.96 C 196.554 210.735 195.524 210.205 194.95 209.868 L 194.372 209.55 L 194.306 209.509 C 181.728 200.824 172.479 190.037 166.211 177.247 C 159.952 164.439 156.661 149.492 156.656 132.389 C 156.661 118.773 159.303 106.378 164.198 95.303 C 171.557 78.719 184.032 64.962 201.091 55.157 C 218.137 45.373 239.79 39.647 264.998 39.647 C 300.636 39.657 327.965 50.384 346.223 66.958 C 364.458 83.588 374.074 105.979 374.135 131.743 C 374.122 148.631 370.604 162.035 364.75 173.029 Z " fill="rgb(255,255,255)"/></g><g><path d=" M 337.581 99.391 L 308.411 165.5 L 235.772 144.227 L 193.212 163.485 L 226.438 106.057 L 293.057 128.399 L 337.581 99.391 Z " fill="rgb(255,255,255)"/></g></g></svg>